<?xml version="1.0" encoding="UTF-8"?>
<svg width="640" height="480" xmlns="http://www.w3.org/2000/svg" xmlns:svg="http://www.w3.org/2000/svg">
 <title>rx logo</title>
 <metadata id="metadata7">image/svg+xml</metadata>
 <g>
  <title>Layer 1</title>
  <path d="m7.10462,6.68002l0,325.11271l99.13702,0l0,-131.97956l8.72362,0c9.00832,0 19.28585,0.26345 24.14692,7.56168l93.32669,140.07992l-84.10238,123.2761l96.06767,0l50.36723,-75.83921l42.67761,75.83921l103.50025,0l-84.53742,-123.2761l78.87738,-112.23957l-97.84021,0l-42.67761,65.68089c-37.10522,-48.74545 -40.02678,-63.6024 -76.56586,-112.59959c14.67092,-3.40171 26.21789,-7.70813 34.64332,-12.88389c13.21814,-8.12957 23.63534,-18.70076 31.1882,-31.78358c7.55295,-13.08595 11.31701,-28.65421 11.31701,-46.69046c0,-20.69725 -4.93759,-38.25623 -14.81588,-52.66826c-9.87811,-14.41517 -22.88288,-24.31037 -39.00636,-29.63281c-16.12348,-5.32188 -39.4305,-7.9572 -69.93483,-7.95748l-164.49237,0zm99.13702,65.63845l43.36963,0c18.01094,0 30.26632,2.82216 36.80163,8.43995c6.538,5.61789 9.80692,13.64204 9.80692,24.13707c0,7.0962 -2.08185,13.39034 -6.22069,18.86173c-4.14154,5.46857 -9.48967,8.86741 -16.02762,10.19929c-12.92834,2.95681 -21.63012,4.44106 -26.13295,4.44106l-41.59692,0l0,-66.0791l0,0z" stroke-miterlimit="4" stroke="#ffffff" fill="#128ae5" stroke-width="4" id="svg_1"/>
 </g>
</svg>